<mxfile host="app.diagrams.net" modified="2023-04-11T23:59:45.917Z" agent="Mozilla/5.0 (Windows NT 10.0; Win64; x64) AppleWebKit/537.36 (KHTML, like Gecko) Chrome/111.0.0.0 Safari/537.36" etag="oeEMw9XdJIX1atLRTv5D" version="21.1.5" type="device">
  <diagram name="Página-1" id="fC2KeBWgfXiLZuXCnI4f">
    <mxGraphModel dx="1434" dy="657" grid="1" gridSize="10" guides="1" tooltips="1" connect="1" arrows="1" fold="1" page="1" pageScale="1" pageWidth="1169" pageHeight="827" math="0" shadow="0">
      <root>
        <mxCell id="0" />
        <mxCell id="1" parent="0" />
        <mxCell id="HGG28WH38UAjwCzB9n1I-1" value="" style="ellipse;whiteSpace=wrap;html=1;aspect=fixed;fillColor=#000000;" vertex="1" parent="1">
          <mxGeometry x="505" y="170" width="80" height="80" as="geometry" />
        </mxCell>
        <mxCell id="HGG28WH38UAjwCzB9n1I-2" value="cantidad_vehiculos, valor_vehiculo, salario, plus, total_pagado, x_cada_vehiculo" style="rounded=0;whiteSpace=wrap;html=1;" vertex="1" parent="1">
          <mxGeometry x="472.5" y="310" width="145" height="90" as="geometry" />
        </mxCell>
        <mxCell id="HGG28WH38UAjwCzB9n1I-3" value="salario = 500&lt;br&gt;	plus = 10&lt;br&gt;	x_cada_vehiculo = 50" style="rounded=0;whiteSpace=wrap;html=1;" vertex="1" parent="1">
          <mxGeometry x="472.5" y="440" width="145" height="80" as="geometry" />
        </mxCell>
        <mxCell id="HGG28WH38UAjwCzB9n1I-4" value="Ingreso cantidad_vehiculos, valor_vehiculo" style="rounded=1;whiteSpace=wrap;html=1;" vertex="1" parent="1">
          <mxGeometry x="485" y="570" width="120" height="60" as="geometry" />
        </mxCell>
        <mxCell id="HGG28WH38UAjwCzB9n1I-5" value="total_pagado = (cantidad_vehiculos * x_cada_vehiculo)  + (valor_vehiculo * plus / 100) + salario" style="rounded=0;whiteSpace=wrap;html=1;" vertex="1" parent="1">
          <mxGeometry x="462.5" y="690" width="165" height="80" as="geometry" />
        </mxCell>
        <mxCell id="HGG28WH38UAjwCzB9n1I-6" value="&quot;El total a pagar es :&quot;, total_pagado" style="shape=document;whiteSpace=wrap;html=1;boundedLbl=1;" vertex="1" parent="1">
          <mxGeometry x="484" y="827" width="120" height="80" as="geometry" />
        </mxCell>
      </root>
    </mxGraphModel>
  </diagram>
</mxfile>
